<svg width="141" height="125" viewBox="0 0 141 125" fill="none" xmlns="http://www.w3.org/2000/svg">
<path d="M135.173 119.148L70.5866 6L6 119.148H135.173Z" stroke="white" stroke-width="10.8276" stroke-linecap="round" stroke-linejoin="round"/>
<path d="M96.4114 81.2518C96.4114 81.2518 84.2845 64.0359 69.3424 64.0359C54.4003 64.0359 42.2734 81.2518 42.2734 81.2518C42.2734 81.2518 54.4003 98.4676 69.3424 98.4676C84.2845 98.4676 96.4114 81.2518 96.4114 81.2518Z" stroke="white" stroke-width="10.8276" stroke-linecap="round" stroke-linejoin="round"/>
<path d="M69.3425 86.2758C72.3325 86.2758 74.7563 83.852 74.7563 80.862C74.7563 77.8721 72.3325 75.4482 69.3425 75.4482C66.3525 75.4482 63.9287 77.8721 63.9287 80.862C63.9287 83.852 66.3525 86.2758 69.3425 86.2758Z" fill="white"/>
</svg>
